<?xml version="1.0" standalone="no"?><!DOCTYPE svg PUBLIC "-//W3C//DTD SVG 1.1//EN" "http://www.w3.org/Graphics/SVG/1.1/DTD/svg11.dtd"><svg t="1587720291804" class="icon" viewBox="0 0 1024 1024" version="1.1" xmlns="http://www.w3.org/2000/svg" p-id="25021" xmlns:xlink="http://www.w3.org/1999/xlink" width="128" height="128"><defs><style type="text/css"></style></defs><path d="M307.2 307.2V102.4c0-56.32 46.08-102.4 102.4-102.4h512a102.4 102.4 0 0 1 102.4 102.4v512a102.4 102.4 0 0 1-102.4 102.4h-204.8v204.8a102.4 102.4 0 0 1-102.4 102.4H102.4a102.4 102.4 0 0 1-102.4-102.4V409.6c0-56.32 46.08-102.4 102.4-102.4h204.8z m102.4 0h204.8a102.4 102.4 0 0 1 102.4 102.4v204.8h204.8V102.4H409.6v204.8zM102.4 409.6v512h512V409.6H102.4z" p-id="25022"></path></svg>