<?xml version="1.0" standalone="no"?><!DOCTYPE svg PUBLIC "-//W3C//DTD SVG 1.1//EN" "http://www.w3.org/Graphics/SVG/1.1/DTD/svg11.dtd"><svg t="1587719776539" class="icon" viewBox="0 0 1024 1024" version="1.1" xmlns="http://www.w3.org/2000/svg" p-id="23835" xmlns:xlink="http://www.w3.org/1999/xlink" width="128" height="128"><defs><style type="text/css"></style></defs><path d="M279.424 170.24l416 448-46.848 43.52-416-448z" p-id="23836"></path><path d="M745.344 169.344l45.312 45.312-440.64 447.104-52.672-44.416z" p-id="23837"></path><path d="M288 576a160 160 0 1 1 0 320 160 160 0 0 1 0-320z m0 64a96 96 0 1 0 0 192 96 96 0 0 0 0-192zM736 576a160 160 0 1 1 0 320 160 160 0 0 1 0-320z m0 64a96 96 0 1 0 0 192 96 96 0 0 0 0-192z" p-id="23838"></path></svg>