<?xml version="1.0" standalone="no"?><!DOCTYPE svg PUBLIC "-//W3C//DTD SVG 1.1//EN" "http://www.w3.org/Graphics/SVG/1.1/DTD/svg11.dtd"><svg t="1587719426711" class="icon" viewBox="0 0 1024 1024" version="1.1" xmlns="http://www.w3.org/2000/svg" p-id="17740" xmlns:xlink="http://www.w3.org/1999/xlink" width="128" height="128"><defs><style type="text/css"></style></defs><path d="M511.853714 24.039619c269.06819 0 487.131429 218.112 487.131429 487.131429 0 269.06819-218.063238 487.131429-487.131429 487.131428s-487.131429-218.063238-487.131428-487.131428c0-269.019429 218.063238-487.131429 487.131428-487.131429z m0 170.520381h-24.380952a24.380952 24.380952 0 0 0-24.380952 24.380952v309.296762c0 10.825143-0.633905 21.796571 4.87619 27.257905l157.93981 157.988571a24.380952 24.380952 0 0 0 34.425904 0l17.212953-17.261714a24.380952 24.380952 0 0 0 0-34.474666l-141.360762-141.312V218.89219a24.380952 24.380952 0 0 0-24.332191-24.380952z" p-id="17741"></path></svg>