<?xml version="1.0" standalone="no"?><!DOCTYPE svg PUBLIC "-//W3C//DTD SVG 1.1//EN" "http://www.w3.org/Graphics/SVG/1.1/DTD/svg11.dtd"><svg t="1587722926366" class="icon" viewBox="0 0 1024 1024" version="1.1" xmlns="http://www.w3.org/2000/svg" p-id="41807" xmlns:xlink="http://www.w3.org/1999/xlink" width="128" height="128"><defs><style type="text/css"></style></defs><path d="M960 864h-128v160H192v-160H64a64 64 0 0 1-64-64V288a64 64 0 0 1 64-64h128V0h640v224h128a64 64 0 0 1 64 64v512a64 64 0 0 1-64 64zM256 960h512v-288H256v288zM768 64H256v160h512V64z m192 224H64v512h128v-192h640v192h128V288z m-192 128h64v64h-64v-64z" p-id="41808"></path></svg>