<?xml version="1.0" standalone="no"?><!DOCTYPE svg PUBLIC "-//W3C//DTD SVG 1.1//EN" "http://www.w3.org/Graphics/SVG/1.1/DTD/svg11.dtd"><svg t="1587723455580" class="icon" viewBox="0 0 1024 1024" version="1.1" xmlns="http://www.w3.org/2000/svg" p-id="51463" xmlns:xlink="http://www.w3.org/1999/xlink" width="128" height="128"><defs><style type="text/css"></style></defs><path d="M606.4 65.7c27.6 5.6 45.3 32.7 39.5 60.2L477.3 919.1c-5.8 27.2-32.5 44.7-59.7 39.1-27.6-5.6-45.3-32.7-39.5-60.2l168.5-793.1c5.9-27.3 32.5-44.7 59.8-39.2zM896.8 512L726.3 341.5c-7.4-7.4-11.5-17.4-11.5-27.8v-32.2c0-35 42.4-52.6 67.2-27.8l230.5 230.5c15.4 15.4 15.4 40.3 0 55.7L781.9 770c-24.8 24.8-67.1 7.2-67.1-27.8v-32.3c0-10.5 4.2-20.5 11.6-27.9l170.4-170M11.5 484.2L242 253.6c24.8-24.8 67.2-7.2 67.2 27.8v32.2c0 10.4-4.1 20.4-11.5 27.8L155 484.1c-15.4 15.4-15.4 40.3 0 55.7L297.6 682c7.4 7.4 11.6 17.4 11.6 27.9v32.3c0 35-42.3 52.6-67.1 27.8L11.5 539.8c-15.3-15.3-15.3-40.3 0-55.6z" p-id="51464"></path></svg>